<?xml version="1.0" encoding="iso-8859-1"?>
<!-- Generator: Adobe Illustrator 19.0.0, SVG Export Plug-In . SVG Version: 6.00 Build 0)  -->
<svg version="1.1" id="Layer_1" xmlns="http://www.w3.org/2000/svg" xmlns:xlink="http://www.w3.org/1999/xlink" x="0px" y="0px"
	 viewBox="0 0 512 512" style="enable-background:new 0 0 512 512;" xml:space="preserve">
<g>
	<g>
		<g>
			<path d="M170.667,277.333h170.667c11.797,0,21.333-9.557,21.333-21.333V128c0-11.776-9.536-21.333-21.333-21.333V85.333
				C341.333,38.272,303.061,0,256,0s-85.333,38.272-85.333,85.333v21.333c-11.797,0-21.333,9.557-21.333,21.333v128
				C149.333,267.776,158.869,277.333,170.667,277.333z M213.333,85.333c0-23.531,19.136-42.667,42.667-42.667
				c23.531,0,42.667,19.136,42.667,42.667v21.333h-85.333V85.333z"/>
			<path d="M405.333,298.667H106.667C47.851,298.667,0,346.517,0,405.333C0,464.149,47.851,512,106.667,512h298.667
				C464.149,512,512,464.149,512,405.333C512,346.517,464.149,298.667,405.333,298.667z M149.333,426.667
				c0,11.776-9.536,21.333-21.333,21.333c-11.797,0-21.333-9.557-21.333-21.333V384c0-11.776,9.536-21.333,21.333-21.333
				c11.797,0,21.333,9.557,21.333,21.333V426.667z M234.667,426.667c0,11.776-9.536,21.333-21.333,21.333
				C201.536,448,192,438.443,192,426.667V384c0-11.776,9.536-21.333,21.333-21.333c11.797,0,21.333,9.557,21.333,21.333V426.667z
				 M320,426.667c0,11.776-9.536,21.333-21.333,21.333c-11.797,0-21.333-9.557-21.333-21.333V384
				c0-11.776,9.536-21.333,21.333-21.333c11.797,0,21.333,9.557,21.333,21.333V426.667z M405.333,448h-42.667
				c-11.797,0-21.333-9.557-21.333-21.333s9.536-21.333,21.333-21.333h42.667c11.797,0,21.333,9.557,21.333,21.333
				S417.131,448,405.333,448z"/>
		</g>
	</g>
</g>
<g>
</g>
<g>
</g>
<g>
</g>
<g>
</g>
<g>
</g>
<g>
</g>
<g>
</g>
<g>
</g>
<g>
</g>
<g>
</g>
<g>
</g>
<g>
</g>
<g>
</g>
<g>
</g>
<g>
</g>
</svg>
